{
  "accessors": [
    {
      "bufferView": 2,
      "componentType": 5126,
      "count": 65532,
      "max": [
        0.8287768959999084,
        0.9232542514801025,
        0.8832895755767822
      ],
      "min": [
        -0.5910793542861938,
        -0.9231441020965576,
        -0.5454455614089966
      ],
      "type": "VEC3"
    },
    {
      "bufferView": 2,
      "byteOffset": 786384,
      "componentType": 5126,
      "count": 65532,
      "max": [
        0.999998927116394,
        0.999900221824646,
        0.9999535083770752
      ],
      "min": [
        -0.999998927116394,
        -0.9996930360794067,
        -0.9996985197067261
      ],
      "type": "VEC3"
    },
    {
      "bufferView": 1,
      "componentType": 5126,
      "count": 65532,
      "max": [
        0.9992750883102417,
        0.9646447896957397
      ],
      "min": [
        7.450580596923828e-08,
        0.03535529971122742
      ],
      "type": "VEC2"
    },
    {
      "bufferView": 0,
      "componentType": 5125,
      "count": 368967,
      "type": "SCALAR"
    },
    {
      "bufferView": 2,
      "byteOffset": 1572768,
      "componentType": 5126,
      "count": 65532,
      "max": [
        0.4255262017250061,
        0.586105227470398,
        0.4744783639907837
      ],
      "min": [
        -0.2984873354434967,
        -0.6907396912574768,
        -0.4430055320262909
      ],
      "type": "VEC3"
    },
    {
      "bufferView": 2,
      "byteOffset": 2359152,
      "componentType": 5126,
      "count": 65532,
      "max": [
        0.999741792678833,
        0.9998822212219238,
        0.999834418296814
      ],
      "min": [
        -0.999998927116394,
        -0.9998822212219238,
        -0.9996985197067261
      ],
      "type": "VEC3"
    },
    {
      "bufferView": 1,
      "byteOffset": 524256,
      "componentType": 5126,
      "count": 65532,
      "max": [
        0.9979113340377808,
        0.9000002145767212
      ],
      "min": [
        7.450581307466564e-08,
        0.10000000894069672
      ],
      "type": "VEC2"
    },
    {
      "bufferView": 0,
      "byteOffset": 1475868,
      "componentType": 5125,
      "count": 380409,
      "type": "SCALAR"
    },
    {
      "bufferView": 2,
      "byteOffset": 3145536,
      "componentType": 5126,
      "count": 65532,
      "max": [
        0.889154314994812,
        0.9235857725143433,
        0.35271695256233215
      ],
      "min": [
        -0.42696526646614075,
        -0.9235860109329224,
        -0.40062135457992554
      ],
      "type": "VEC3"
    },
    {
      "bufferView": 2,
      "byteOffset": 3931920,
      "componentType": 5126,
      "count": 65532,
      "max": [
        1.0,
        0.9999804496765137,
        0.999900221824646
      ],
      "min": [
        -1.0,
        -0.9999804496765137,
        -0.999900221824646
      ],
      "type": "VEC3"
    },
    {
      "bufferView": 1,
      "byteOffset": 1048512,
      "componentType": 5126,
      "count": 65532,
      "max": [
        1.0000001192092896,
        0.9646447896957397
      ],
      "min": [
        7.450580596923828e-08,
        0.03535529971122742
      ],
      "type": "VEC2"
    },
    {
      "bufferView": 0,
      "byteOffset": 2997504,
      "componentType": 5125,
      "count": 359751,
      "type": "SCALAR"
    },
    {
      "bufferView": 2,
      "byteOffset": 4718304,
      "componentType": 5126,
      "count": 65532,
      "max": [
        0.1619768738746643,
        0.2999163866043091,
        0.9249767065048218
      ],
      "min": [
        -0.8878296613693237,
        -0.3000907599925995,
        -0.921421468257904
      ],
      "type": "VEC3"
    },
    {
      "bufferView": 2,
      "byteOffset": 5504688,
      "componentType": 5126,
      "count": 65532,
      "max": [
        0.999998927116394,
        0.9997012615203857,
        0.9999579191207886
      ],
      "min": [
        -1.0,
        -0.999900221824646,
        -0.9997470378875732
      ],
      "type": "VEC3"
    },
    {
      "bufferView": 1,
      "byteOffset": 1572768,
      "componentType": 5126,
      "count": 65532,
      "max": [
        1.0000001192092896,
        0.9646447896957397
      ],
      "min": [
        7.450581307466564e-08,
        0.03535529971122742
      ],
      "type": "VEC2"
    },
    {
      "bufferView": 0,
      "byteOffset": 4436508,
      "componentType": 5125,
      "count": 370332,
      "type": "SCALAR"
    },
    {
      "bufferView": 2,
      "byteOffset": 6291072,
      "componentType": 5126,
      "count": 18567,
      "max": [
        0.09009206295013428,
        0.2096763253211975,
        0.9254186749458313
      ],
      "min": [
        -0.8878296613693237,
        -0.2104690968990326,
        -0.9217531681060791
      ],
      "type": "VEC3"
    },
    {
      "bufferView": 2,
      "byteOffset": 6513876,
      "componentType": 5126,
      "count": 18567,
      "max": [
        1.0,
        0.999900221824646,
        0.9999804496765137
      ],
      "min": [
        -1.0,
        -0.999900221824646,
        -0.9999804496765137
      ],
      "type": "VEC3"
    },
    {
      "bufferView": 1,
      "byteOffset": 2097024,
      "componentType": 5126,
      "count": 18567,
      "max": [
        1.0000001192092896,
        0.9646447896957397
      ],
      "min": [
        7.450581307466564e-08,
        0.03535529971122742
      ],
      "type": "VEC2"
    },
    {
      "bufferView": 0,
      "byteOffset": 5917836,
      "componentType": 5125,
      "count": 99549,
      "type": "SCALAR"
    }
  ],
  "asset": {
    "extras": {
      "author": "sc8di (https://sketchfab.com/sc8di)",
      "license": "CC-BY-4.0 (http://creativecommons.org/licenses/by/4.0/)",
      "source": "https://sketchfab.com/3d-models/sphericon-pendant-05a736d27b91452387d451bc9a796b23",
      "title": "Sphericon Pendant"
    },
    "generator": "Sketchfab-12.66.0",
    "version": "2.0"
  },
  "bufferViews": [
    {
      "buffer": 0,
      "byteLength": 6316032,
      "name": "floatBufferViews",
      "target": 34963
    },
    {
      "buffer": 0,
      "byteLength": 2245560,
      "byteOffset": 6316032,
      "byteStride": 8,
      "name": "floatBufferViews",
      "target": 34962
    },
    {
      "buffer": 0,
      "byteLength": 6736680,
      "byteOffset": 8561592,
      "byteStride": 12,
      "name": "floatBufferViews",
      "target": 34962
    }
  ],
  "buffers": [
    {
      "byteLength": 15298272,
      "uri": "scene.bin"
    }
  ],
  "materials": [
    {
      "doubleSided": true,
      "name": "Scene_-_Root",
      "pbrMetallicRoughness": {
        "roughnessFactor": 0.28747818737877656
      }
    }
  ],
  "meshes": [
    {
      "name": "Cylinder.002__0",
      "primitives": [
        {
          "attributes": {
            "NORMAL": 1,
            "POSITION": 0,
            "TEXCOORD_0": 2
          },
          "indices": 3,
          "material": 0,
          "mode": 4
        }
      ]
    },
    {
      "name": "Cylinder.002__0",
      "primitives": [
        {
          "attributes": {
            "NORMAL": 5,
            "POSITION": 4,
            "TEXCOORD_0": 6
          },
          "indices": 7,
          "material": 0,
          "mode": 4
        }
      ]
    },
    {
      "name": "Cylinder.002__0",
      "primitives": [
        {
          "attributes": {
            "NORMAL": 9,
            "POSITION": 8,
            "TEXCOORD_0": 10
          },
          "indices": 11,
          "material": 0,
          "mode": 4
        }
      ]
    },
    {
      "name": "Cylinder.002__0",
      "primitives": [
        {
          "attributes": {
            "NORMAL": 13,
            "POSITION": 12,
            "TEXCOORD_0": 14
          },
          "indices": 15,
          "material": 0,
          "mode": 4
        }
      ]
    },
    {
      "name": "Cylinder.002__0",
      "primitives": [
        {
          "attributes": {
            "NORMAL": 17,
            "POSITION": 16,
            "TEXCOORD_0": 18
          },
          "indices": 19,
          "material": 0,
          "mode": 4
        }
      ]
    }
  ],
  "nodes": [
    {
      "children": [
        1
      ],
      "matrix": [
        1.0,
        0.0,
        0.0,
        0.0,
        0.0,
        2.220446049250313e-16,
        -1.0,
        0.0,
        0.0,
        1.0,
        2.220446049250313e-16,
        0.0,
        0.0,
        0.0,
        0.0,
        1.0
      ],
      "name": "Sketchfab_model"
    },
    {
      "children": [
        2
      ],
      "matrix": [
        1.0,
        0.0,
        0.0,
        0.0,
        0.0,
        0.0,
        1.0,
        0.0,
        0.0,
        -1.0,
        0.0,
        0.0,
        0.0,
        0.0,
        0.0,
        1.0
      ],
      "name": "86111ced27fe4d37a42684912bf60e63.fbx"
    },
    {
      "children": [
        3
      ],
      "name": "RootNode"
    },
    {
      "children": [
        4,
        5,
        6,
        7,
        8
      ],
      "matrix": [
        100.0,
        0.0,
        0.0,
        0.0,
        0.0,
        -1.629206793918314e-05,
        -99.99999999999868,
        0.0,
        0.0,
        99.99999999999868,
        -1.629206793918314e-05,
        0.0,
        0.0,
        0.0,
        0.0,
        1.0
      ],
      "name": "Cylinder.002"
    },
    {
      "mesh": 0,
      "name": "Cylinder.002__0"
    },
    {
      "mesh": 1,
      "name": "Cylinder.002__0"
    },
    {
      "mesh": 2,
      "name": "Cylinder.002__0"
    },
    {
      "mesh": 3,
      "name": "Cylinder.002__0"
    },
    {
      "mesh": 4,
      "name": "Cylinder.002__0"
    }
  ],
  "scene": 0,
  "scenes": [
    {
      "name": "Sketchfab_Scene",
      "nodes": [
        0
      ]
    }
  ]
}
